<svg xmlns="http://www.w3.org/2000/svg" viewBox="0 0 900 600"><rect width="900" height="600" fill="#f5f3ee"/><rect x="92" y="92" width="716" height="416" fill="#ebe7de"/><ellipse cx="450" cy="330" rx="170" ry="95" fill="#fbfaf6" stroke="#466B6B" stroke-width="10"/><path d="M338 290 C350 245 390 215 450 215 C510 215 550 245 562 290" fill="none" stroke="#9f7b67" stroke-width="8"/><circle cx="410" cy="325" r="7" fill="#466B6B"/><circle cx="492" cy="325" r="7" fill="#466B6B"/><path d="M410 375 Q450 400 490 375" fill="none" stroke="#9f7b67" stroke-width="6"/><rect x="124" y="135" width="112" height="160" rx="4" fill="#d6ddd8"/><path d="M148 185h64 M148 220h64 M148 255h52" stroke="#6e7979" stroke-width="6"/><path d="M685 155 L735 205 M735 155 L685 205" stroke="#8d5f5f" stroke-width="9" opacity=".8"/><text x="450" y="555" text-anchor="middle" font-family="Georgia,serif" font-size="34" fill="#3e4f4f">DOCTOR'S ORDERS</text></svg>
